<svg xmlns="http://www.w3.org/2000/svg" width="24" height="24" viewBox="0 0 32 32" fill-rule="evenodd" class="vector-svg"><path stroke="gray" stroke-width="0px" stroke-linecap="round" shape-rendering="geometricPrecision" d="M 9 14.46 L 16 7.63 L 23 14.46 L 23 25.13 L 23 25.13 L 23 26 L 22.13 26 L 9.73 26 L 9 26 L 9 25.27 L 9 14.46 L 9 14.46 Z M 6 17.39 L 5.86 17.52 C 5.21 18.16 4.15 18.16 3.49 17.52 C 2.84 16.88 2.84 15.85 3.49 15.21 L 13.63 5.31 L 16 3 L 18.37 5.31 L 28.51 15.21 C 29.16 15.85 29.16 16.88 28.51 17.52 C 27.85 18.16 26.79 18.16 26.14 17.52 L 26 17.39 L 26 27 C 26 28.1 25.1 29 24 29 L 8 29 C 6.9 29 6 28.1 6 27 L 6 17.39 L 6 17.39 Z"/></svg>
